<?xml version="1.0" encoding="utf-8"?>
<!-- Generator: Adobe Illustrator 25.0.0, SVG Export Plug-In . SVG Version: 6.00 Build 0)  -->
<svg alt="logo" role="img" version="1.1" id="Layer_1" xmlns="http://www.w3.org/2000/svg" xmlns:xlink="http://www.w3.org/1999/xlink" x="0px" y="0px"
	 viewBox="0 0 240.6 112.6" style="enable-background:new 0 0 240.6 112.6;" xml:space="preserve">
	 <title>Logo</title>
<style type="text/css">
	.st0{fill:#FFFFFF;}
</style>
<g id="Livello_2">
	<g id="Livello_1-2">
		<path class="st0" d="M240.6,31.8c-0.3-0.4-0.5-0.9-0.4-1.3v-5.9c0-1.3,0-4-5.3-4c-1.4-0.1-2.7,0.2-4,0.7c-1.1,0.5-1.9,1.6-2,2.9
			l4.2-0.1c0.2-0.7,0.4-1,1.4-1c1.3,0,1.5,0.5,1.5,1.2c-0.8,0.2-1.6,0.4-2.4,0.5c-2,0.3-3.2,0.4-4.2,1.4c-0.6,0.6-1,1.5-0.9,2.3
			c0,1.8,1.2,3.5,4,3.5c1.3,0.1,2.6-0.3,3.7-1v0.8L240.6,31.8z M236,26.8c0,0.4,0,0.9-0.2,1.3c-0.4,0.7-1.2,1.2-2,1.2
			c-0.8,0-1.1-0.5-1.1-0.8c0-0.1,0-0.6,0.9-1c0.4-0.1,0.8-0.2,1.1-0.3C235.1,27.1,235.6,26.9,236,26.8L236,26.8z M222.7,31.8h4.5V21
			h-4.5V31.8z M222.7,19.9h4.5V17h-4.5V19.9z M216.4,31.8h4.4V25c0.1-1.2-0.3-2.3-1.1-3.2c-0.9-0.7-2-1.1-3.1-1.1
			c-2.6,0-3.6,1.3-3.9,2c-0.4-0.9-1.2-1.5-2.2-1.7c-0.6-0.2-1.1-0.3-1.7-0.3c-1.4-0.1-2.8,0.6-3.5,1.8V21h-4.3v10.8h4.5v-5.9
			c0-0.4,0.1-0.9,0.4-1.2c0.3-0.3,0.8-0.5,1.2-0.4c0.7-0.1,1.3,0.4,1.5,1.1c0,0.2,0.1,0.4,0.1,0.6v5.9h4.5V26
			c-0.1-0.8,0.4-1.6,1.3-1.7c0.1,0,0.3,0,0.4,0c1.5,0,1.6,1.2,1.6,1.9L216.4,31.8L216.4,31.8z M192.1,27.2h7.8
			c-0.1-1.6-0.1-3.5-1.7-5c-1.2-1.1-2.9-1.7-4.5-1.6c-3.6,0-6.2,2.3-6.2,5.8c0,3,2,5.9,6.2,5.9c2.4,0.1,4.6-1,5.9-3l-3.7-1.5
			c-0.3,0.8-1.1,1.4-2,1.4c-0.5,0-1-0.2-1.3-0.5C192.3,28.3,192.1,27.7,192.1,27.2L192.1,27.2z M192.1,24.9c0-0.9,0.8-1.6,1.7-1.6
			c0.7,0,1.3,0.4,1.5,1.1c0,0.2,0,0.3,0.1,0.5H192.1z M187.5,48.2c0,3,2,5.9,6.2,5.9c2.4,0.1,4.7-1,6-3l-3.7-1.5
			c-0.3,0.8-1.1,1.4-2,1.4c-0.5,0-1-0.2-1.3-0.5c-0.4-0.4-0.6-1-0.5-1.5h7.8c0-1.7-0.1-3.5-1.7-5c-1.2-1.1-2.9-1.7-4.5-1.6
			c-3.6,0-6.2,2.3-6.2,5.8L187.5,48.2z M192.1,46.8c0.1-0.9,0.8-1.6,1.7-1.6c0.7,0,1.3,0.4,1.5,1.1c0,0.2,0,0.3,0.1,0.5H192.1z
			 M181.8,53.7h4.5V38.9h-4.5V53.7z M182,31.8h4.3V17h-4.5v4.7c-0.8-0.7-1.8-1.1-2.9-1c-2.4,0-4.9,1.7-4.9,5.5c0,3.4,1.8,6,5,6
			c0.6,0,1.1-0.1,1.7-0.3c0.5-0.2,0.9-0.5,1.2-0.9V31.8L182,31.8z M182,26.4c0.1,0.8-0.1,1.5-0.6,2.1c-0.3,0.3-0.7,0.5-1.1,0.5
			c-0.4,0-0.8-0.2-1.1-0.5c-0.5-0.6-0.7-1.4-0.6-2.1c0-0.4,0-0.9,0.1-1.3c0.1-0.8,0.8-1.4,1.6-1.4c0.7,0,1.3,0.6,1.5,1.3
			C181.9,25.4,182,25.9,182,26.4L182,26.4z M168.9,31.8h4.4c-0.3-0.4-0.5-0.9-0.4-1.3v-5.9c0-1.3,0-4-5.3-4c-1.4-0.1-2.7,0.2-4,0.7
			c-1.1,0.5-1.9,1.6-2,2.9l4.2-0.1c0.2-0.7,0.4-1,1.4-1c1.3,0,1.5,0.5,1.5,1.2c-0.8,0.2-1.6,0.4-2.4,0.5c-2,0.3-3.2,0.4-4.2,1.4
			c-0.6,0.6-1,1.5-0.9,2.3c0,1.8,1.2,3.5,4,3.5c1.3,0.1,2.6-0.3,3.7-1L168.9,31.8L168.9,31.8z M168.6,26.8c0,0.4,0,0.9-0.2,1.3
			c-0.4,0.7-1.2,1.2-2,1.2c-0.8,0-1.1-0.5-1.1-0.8c0-0.1,0-0.6,0.9-1c0.4-0.1,0.8-0.2,1.1-0.3C167.7,27.1,168.2,26.9,168.6,26.8
			L168.6,26.8z M160.9,48c0-3.8-2.4-5.5-4.9-5.5c-1.1-0.1-2.1,0.3-2.9,1.1v-4.7h-4.5v14.8h4.3v-0.8c0.3,0.4,0.7,0.6,1.1,0.8
			c0.5,0.2,1.1,0.3,1.7,0.3C159,54,160.9,51.4,160.9,48L160.9,48z M156.5,48.2c0.1,0.8-0.1,1.5-0.6,2.1c-0.3,0.3-0.7,0.5-1.1,0.5
			c-0.8,0-1.4-0.5-1.5-1.3c-0.1-0.4-0.2-0.9-0.2-1.3c-0.1-0.8,0.2-1.5,0.6-2.1c0.3-0.3,0.7-0.5,1.1-0.5c0.8,0,1.5,0.6,1.6,1.4
			C156.5,47.4,156.5,47.8,156.5,48.2z M153.3,26.4c0-1.6,0.7-2.9,2-2.9c1,0,1.8,0.7,1.9,1.7l3.4-1.9c-0.2-0.4-0.5-0.8-0.9-1.1
			c-1.2-1.2-2.9-1.8-4.6-1.7c-1.7-0.1-3.4,0.5-4.6,1.7c-1.1,1.1-1.7,2.6-1.6,4.2c-0.2,3.1,2.2,5.7,5.2,5.9c0.3,0,0.5,0,0.8,0
			c1.7,0.1,3.4-0.5,4.7-1.7c0.5-0.5,0.8-1,1.1-1.6l-3.4-1.8c-0.2,0.6-0.6,1.8-2,1.8C153.5,28.9,153.3,27.3,153.3,26.4L153.3,26.4z
			 M153.1,60.8h-4.4v3.4h-1.5v2.3h1.5l-0.1,5.2c-0.1,0.8,0.2,1.6,0.7,2.2c0.8,0.6,1.9,1,2.9,0.9c0.9,0,1.9-0.1,2.8-0.2v-3
			c-0.3,0.1-0.5,0.1-0.8,0.1c-1.2,0-1.2-0.7-1.2-1.1v-4.1h2v-2.3h-1.9L153.1,60.8L153.1,60.8z M141.2,26.4c0-1.6,0.7-2.9,2-2.9
			c1,0,1.8,0.7,1.9,1.7l3.4-1.9c-0.2-0.4-0.5-0.8-0.9-1.1c-1.2-1.2-2.9-1.8-4.6-1.7c-1.7-0.1-3.4,0.5-4.6,1.7
			c-1.1,1.1-1.7,2.6-1.6,4.2c-0.2,3.1,2.2,5.7,5.2,5.9c0.3,0,0.5,0,0.8,0c1.7,0.1,3.4-0.5,4.7-1.7c0.5-0.5,0.8-1,1.1-1.6l-3.4-1.8
			c-0.2,0.6-0.6,1.8-2,1.8C141.4,28.9,141.2,27.3,141.2,26.4L141.2,26.4z M145.5,63.7c-1.4-0.2-2.7,0.3-3.7,1.2v-1h-4.3v10.8h4.4
			v-5.1c0-0.7,0.1-2.3,2.7-2.3c0.3,0,0.6,0,0.9,0V63.7L145.5,63.7z M142.3,42.8h-4.5v10.9h4.5V42.8L142.3,42.8z M142.3,38.9h-4.5
			v2.9h4.5V38.9L142.3,38.9z M143.5,87.7c-0.8,0.2-1.6,0.4-2.4,0.5c-2,0.2-3.2,0.4-4.2,1.4c-0.6,0.6-1,1.4-1,2.3
			c0,1.8,1.2,3.5,4,3.5c1.3,0.1,2.6-0.3,3.7-1.1v0.8h4.4c-0.3-0.4-0.5-0.9-0.4-1.3v-5.9c0-1.3,0-4-5.3-4c-1.4,0-2.7,0.2-4,0.7
			c-1.1,0.5-1.9,1.6-2,2.9l4.2-0.1c0.2-0.8,0.4-1,1.4-1C143.3,86.5,143.5,87,143.5,87.7L143.5,87.7z M143.5,90.1
			c0,0.4,0,0.9-0.2,1.3c-0.4,0.7-1.2,1.2-2.1,1.2c-0.8,0-1.1-0.5-1.1-0.8c0-0.1,0-0.6,0.9-1c0.4-0.1,0.8-0.2,1.1-0.3
			C142.6,90.4,143.1,90.2,143.5,90.1L143.5,90.1z M131.7,53.7h4.3V38.9h-4.5v4.7c-0.8-0.7-1.8-1.1-2.9-1.1c-2.4,0-4.9,1.7-4.9,5.5
			c0,3.4,1.8,6,5,6c0.6,0,1.1-0.1,1.7-0.3c0.5-0.1,0.9-0.4,1.1-0.8L131.7,53.7L131.7,53.7z M131.7,48.2c0.1,0.8-0.1,1.5-0.6,2.1
			c-0.3,0.3-0.7,0.5-1.1,0.5c-0.4,0-0.8-0.2-1.1-0.5c-0.5-0.6-0.7-1.4-0.6-2.1c0-0.4,0-0.9,0.1-1.3c0.1-0.9,1-1.5,1.8-1.3
			c0.6,0.1,1.2,0.6,1.3,1.2C131.6,47.3,131.7,47.8,131.7,48.2z M131.6,31.8h4.4c-0.3-0.4-0.5-0.9-0.4-1.3v-5.9c0-1.3,0-4-5.3-4
			c-1.4-0.1-2.7,0.2-4,0.7c-1.1,0.5-1.9,1.6-2,2.9l4.2-0.1c0.1-0.7,0.4-1,1.4-1c1.3,0,1.5,0.5,1.5,1.2c-0.8,0.2-1.6,0.4-2.4,0.5
			c-2,0.3-3.2,0.4-4.2,1.4c-0.6,0.6-1,1.4-1,2.3c0,1.8,1.2,3.5,4,3.5c1.3,0.1,2.6-0.3,3.7-1L131.6,31.8L131.6,31.8z M131.3,26.8
			c0,0.4,0,0.9-0.2,1.3c-0.4,0.8-1.2,1.2-2.1,1.2c-0.8,0-1.1-0.5-1.1-0.8c0-0.1,0-0.6,0.9-1c0.4-0.1,0.8-0.2,1.1-0.3
			C130.3,27.1,130.8,26.9,131.3,26.8L131.3,26.8z M112.6,56.3L91.8,41.6l4.3-25.1L71,20.8L56.3,0L41.6,20.8l-25.1-4.3l4.3,25.1
			L0,56.3L20.8,71l-4.3,25.1l25.1-4.3l14.7,20.8L71,91.8l25.1,4.3L91.8,71L112.6,56.3L112.6,56.3z M29.9,86L50,79.6l-7.8,8.6
			L29.9,86z M27.6,27.6L53,37.4L37.4,53L27.6,27.6L27.6,27.6z M33,50l-8.6-7.8l2.2-12.3L33,50z M33,62.6l-6.4,20.1l-2.2-12.3
			L33,62.6L33,62.6z M54.5,40.4v14.1H40.3L54.5,40.4z M54.5,58.1v14.1L40.3,58.1H54.5z M53,75.1l-25.6,10l10.1-25.5L53,75.1L53,75.1
			z M21,91.6l1.8-14L24.6,88L35,89.8L21,91.6z M8,57.4l24.7,0.8l-9.9,10.2L8,57.4z M22.8,44.3l9.9,10.2L8,55.2L22.8,44.3L22.8,44.3z
			 M35,22.8l-10.4,1.8L22.8,35L21,21L35,22.8z M42.2,24.4L50,33l-20.1-6.4L42.2,24.4z M55.2,8l-0.8,24.7l-10.2-9.9L55.2,8z
			 M55.2,104.6l-11-14.8l10.2-9.9L55.2,104.6L55.2,104.6z M89.8,68.4l-9.9-10.2l24.7-0.8L89.8,68.4L89.8,68.4z M58.1,72.3V58.1h14.1
			L58.1,72.3z M75.1,59.7l10,25.6l-25.6-10L75.1,59.7L75.1,59.7z M58.1,54.5V40.4l14.1,14.1L58.1,54.5z M59.6,37.5L85,27.6L75.2,53
			L59.6,37.5L59.6,37.5z M86,29.9l2.2,12.3L79.6,50L86,29.9z M79.6,62.6l8.6,7.8L86,82.7L79.6,62.6L79.6,62.6z M77.6,89.8L88,88
			l1.8-10.4l1.8,14L77.6,89.8L77.6,89.8z M70.4,88.2l-7.8-8.6L82.7,86L70.4,88.2L70.4,88.2z M57.4,104.6l0.8-24.6l10.2,9.9
			L57.4,104.6L57.4,104.6z M68.4,22.8l-10.2,9.9L57.4,8L68.4,22.8L68.4,22.8z M82.7,26.6L62.6,33l7.8-8.6L82.7,26.6L82.7,26.6z
			 M91.6,21l-1.8,14L88,24.6l-10.4-1.8L91.6,21L91.6,21z M104.6,55.3L80,54.5l9.9-10.2L104.6,55.3L104.6,55.3z M125.4,85.5
			c-1.1,1.1-1.6,2.6-1.6,4.2c-0.2,3.1,2.1,5.7,5.2,5.9c0.3,0,0.5,0,0.8,0c1.7,0.1,3.4-0.5,4.7-1.7c0.5-0.5,0.8-1,1.1-1.6l-3.4-1.8
			c-0.2,0.6-0.6,1.8-2,1.8c-1.7,0-1.9-1.6-1.9-2.5c0-1.6,0.7-2.9,2-2.9c0.9,0,1.7,0.7,1.9,1.6l3.4-1.9c-0.2-0.4-0.5-0.8-0.9-1.1
			c-1.2-1.2-2.9-1.8-4.6-1.7C128.3,83.8,126.7,84.4,125.4,85.5L125.4,85.5z M131.4,67.3c-0.8,0.2-1.6,0.4-2.4,0.5
			c-2,0.2-3.2,0.4-4.2,1.4c-0.6,0.6-1,1.4-1,2.3c0,1.8,1.2,3.5,4,3.5c1.3,0.1,2.6-0.3,3.7-1.1v0.8h4.4c-0.3-0.4-0.5-0.9-0.4-1.3
			v-5.9c0-1.3,0-4-5.3-4c-1.4-0.1-2.7,0.2-4,0.7c-1.1,0.5-1.9,1.6-2,2.9l4.2-0.1c0.1-0.8,0.4-1,1.4-1
			C131.2,66,131.4,66.5,131.4,67.3L131.4,67.3z M131.4,69.7c0,0.5-0.1,0.9-0.3,1.3c-0.4,0.7-1.2,1.2-2.1,1.2c-0.8,0-1.1-0.5-1.1-0.8
			c0-0.1,0-0.6,0.9-1c0.4-0.1,0.8-0.2,1.2-0.3c0.4-0.1,0.9-0.3,1.3-0.4L131.4,69.7z M150.2,84.6h-1.6v2.3h1.5l-0.1,5.3
			c-0.1,0.8,0.2,1.6,0.8,2.2c0.8,0.6,1.9,1,2.9,0.9c0.9,0,1.9-0.1,2.8-0.2v-3c-0.3,0-0.5,0.1-0.8,0.1c-1.2,0-1.2-0.7-1.2-1.1v-4.2h2
			v-2.3h-1.9v-3.4h-4.5L150.2,84.6L150.2,84.6z M161.5,60H157v2.9h4.4L161.5,60L161.5,60z M161.5,63.9H157v10.8h4.4L161.5,63.9
			L161.5,63.9z M158.1,89.6c-0.6,0.6-1,1.4-1,2.3c0,1.8,1.2,3.5,4,3.5c1.3,0.1,2.6-0.3,3.7-1.1v0.8h4.4c-0.3-0.4-0.5-0.9-0.4-1.3
			v-5.9c0-1.3,0-4-5.3-4c-1.4-0.1-2.7,0.2-4,0.7c-1.1,0.5-1.9,1.6-2,2.9l4.2-0.1c0.1-0.8,0.4-1,1.4-1c1.3,0,1.5,0.5,1.5,1.2
			c-0.8,0.2-1.6,0.4-2.4,0.5C160.3,88.4,159.1,88.6,158.1,89.6L158.1,89.6z M161.3,91.8c0-0.1,0-0.6,0.9-1c0.4-0.1,0.8-0.2,1.1-0.3
			c0.5-0.1,0.9-0.3,1.3-0.4c0,0.4,0,0.9-0.2,1.3c-0.4,0.7-1.2,1.2-2.1,1.2C161.6,92.6,161.3,92,161.3,91.8L161.3,91.8z M167,50.6
			c-0.4-0.4-0.6-1-0.5-1.5h7.8c-0.1-1.7-0.1-3.5-1.7-5c-1.2-1.1-2.9-1.7-4.5-1.6c-3.6,0-6.2,2.3-6.2,5.8c0,3,2,5.9,6.2,5.9
			c2.4,0.1,4.7-1,6-3l-3.7-1.5c-0.3,0.8-1.1,1.4-2,1.4C167.9,51.1,167.4,50.9,167,50.6L167,50.6z M166.5,46.8
			c0.1-0.9,0.8-1.6,1.7-1.6c0.7,0,1.3,0.4,1.5,1.1c0,0.2,0.1,0.3,0.1,0.5H166.5z M175.5,53.7h4.5V38.9h-4.5L175.5,53.7L175.5,53.7z
			 M175,84.3h-4.2v10.9h4.5v-5.8c0-0.6,0-1.8,1.6-1.8s1.5,1.1,1.5,1.6v5.9h4.4v-6.9c0.1-1.2-0.3-2.4-1.1-3.3c-0.8-0.7-1.9-1.1-3-1
			c-1.5-0.2-2.9,0.5-3.7,1.7V84.3z M189.2,80.4h-4.5v2.9h4.5C189.2,83.2,189.2,80.4,189.2,80.4z M189.2,84.3h-4.5v10.9h4.5V84.3z
			 M191.6,89.6c-0.6,0.6-1,1.5-0.9,2.3c0,1.8,1.2,3.5,4,3.5c1.3,0.1,2.6-0.3,3.7-1.1v0.8h4.4c-0.3-0.4-0.5-0.9-0.4-1.3v-5.9
			c0-1.3,0-4-5.3-4c-1.4,0-2.7,0.2-4,0.7c-1.1,0.5-1.9,1.6-2,2.9l4.2-0.1c0.2-0.8,0.4-1,1.4-1c1.3,0,1.5,0.5,1.5,1.2
			c-0.8,0.2-1.6,0.4-2.4,0.5C193.8,88.4,192.6,88.6,191.6,89.6L191.6,89.6z M194.7,91.8c0-0.1,0-0.6,0.9-1c0.4-0.1,0.8-0.2,1.1-0.3
			c0.4-0.1,0.9-0.3,1.3-0.4c0,0.4,0,0.9-0.2,1.3c-0.4,0.7-1.2,1.2-2,1.2C195,92.6,194.8,92.1,194.7,91.8L194.7,91.8z"/>
	</g>
</g>
</svg>
